<svg id="Calque_1" data-name="Calque 1" xmlns="http://www.w3.org/2000/svg" viewBox="0 0 272.33 120.56"><defs><style>.cls-1{fill:#1d1d1b;}.cls-2{fill:#d22934;stroke:#d22934;stroke-miterlimit:10;}.cls-3{fill:#fff;}</style></defs><path class="cls-1" d="M174.34,236.65H159.58v-3.84h34v3.84H178.78v38.16h-4.44Z" transform="translate(-151.47 -232.45)"/><path class="cls-1" d="M204.1,253.81c0-12.24,9.36-21.36,22.08-21.36s22,9.06,22,21.36-9.42,21.36-22,21.36S204.1,266.05,204.1,253.81Zm39.65,0c0-10-7.5-17.4-17.57-17.4s-17.7,7.38-17.7,17.4,7.56,17.4,17.7,17.4S243.75,263.83,243.75,253.81Z" transform="translate(-151.47 -232.45)"/><path class="cls-1" d="M298.83,247.21c0,8.94-6.48,14.34-17.16,14.34H270.4v13.26H266v-42h15.71C292.35,232.81,298.83,238.21,298.83,247.21Zm-4.44,0c0-6.72-4.44-10.56-12.84-10.56H270.4v21h11.15C290,257.65,294.39,253.81,294.39,247.21Z" transform="translate(-151.47 -232.45)"/><path class="cls-1" d="M365.31,271v3.84H335.85v-3.06l17.46-17.1c4.74-4.68,5.64-7.5,5.64-10.38,0-4.86-3.42-7.86-9.84-7.86-4.92,0-8.7,1.5-11.46,4.68l-3.06-2.64c3.24-3.84,8.46-6,14.88-6,8.52,0,13.92,4.32,13.92,11.34,0,4-1.26,7.62-6.9,13.14l-14.28,14Z" transform="translate(-151.47 -232.45)"/><path class="cls-1" d="M378.27,253.81c0-13.38,7-21.36,16.74-21.36s16.8,8,16.8,21.36-7.08,21.36-16.8,21.36S378.27,267.19,378.27,253.81Zm29.1,0c0-11.22-5-17.4-12.36-17.4s-12.36,6.18-12.36,17.4,5,17.4,12.36,17.4S407.37,265,407.37,253.81Z" transform="translate(-151.47 -232.45)"/><rect class="cls-2" x="1.97" y="59.89" width="269.86" height="36.47"/><path class="cls-3" d="M226.79,302.86h2.4v14.71h9.09v2.09H226.79Z" transform="translate(-151.47 -232.45)"/><path class="cls-3" d="M258,317.57v2.09H245.84v-16.8H257.7V305h-9.46v5.16h8.43v2h-8.43v5.42Z" transform="translate(-151.47 -232.45)"/><path class="cls-3" d="M276.61,311.26c0-5,3.79-8.59,8.9-8.59a8.33,8.33,0,0,1,6.39,2.61l-1.56,1.52a6.23,6.23,0,0,0-4.73-2,6.46,6.46,0,1,0,0,12.92,6.25,6.25,0,0,0,4.73-2l1.56,1.51a8.33,8.33,0,0,1-6.41,2.64C280.4,319.85,276.61,316.23,276.61,311.26Z" transform="translate(-151.47 -232.45)"/><path class="cls-3" d="M300.13,302.86h2.4v14.71h9.1v2.09h-11.5Z" transform="translate(-151.47 -232.45)"/><path class="cls-3" d="M318.75,312.41v-9.55h2.4v9.46c0,3.72,1.71,5.4,4.73,5.4s4.75-1.68,4.75-5.4v-9.46H333v9.55c0,4.88-2.66,7.44-7.1,7.44S318.75,317.29,318.75,312.41Z" transform="translate(-151.47 -232.45)"/><path class="cls-3" d="M357.13,315.12c0,2.88-2.18,4.54-6.43,4.54h-8v-16.8h7.54c3.86,0,6,1.63,6,4.34A4,4,0,0,1,354,311,4.06,4.06,0,0,1,357.13,315.12ZM345.08,304.8v5.38H350c2.45,0,3.84-.91,3.84-2.69s-1.39-2.69-3.84-2.69Zm9.63,10.13c0-1.94-1.44-2.81-4.11-2.81h-5.52v5.6h5.52C353.27,317.72,354.71,316.88,354.71,314.93Z" transform="translate(-151.47 -232.45)"/><path class="cls-1" d="M159.73,350.11h-5.85l-1.26,2.81h-1.15l4.8-10.5h1.09l4.8,10.5H161Zm-.4-.9-2.52-5.64-2.52,5.64Z" transform="translate(-151.47 -232.45)"/><path class="cls-1" d="M166.9,342.42H168v10.5H166.9Z" transform="translate(-151.47 -232.45)"/><path class="cls-1" d="M181,352.92l-3.39-4.62-3.38,4.62H173l4-5.4-3.74-5.1h1.28l3.16,4.29,3.15-4.29H182l-3.72,5.07,4,5.43Z" transform="translate(-151.47 -232.45)"/><path class="cls-1" d="M205.11,342.42v10.5H204v-8.4l-4.12,7.06h-.53l-4.12-7v8.36H194.2v-10.5h.92l4.56,7.78,4.51-7.78Z" transform="translate(-151.47 -232.45)"/><path class="cls-1" d="M218.11,350.11h-5.85L211,352.92h-1.15l4.8-10.5h1.09l4.8,10.5h-1.17Zm-.4-.9-2.52-5.64-2.52,5.64Z" transform="translate(-151.47 -232.45)"/><path class="cls-1" d="M232.45,352.92l-2.4-3.38a7.44,7.44,0,0,1-.84,0h-2.82v3.33h-1.11v-10.5h3.93c2.67,0,4.29,1.35,4.29,3.6a3.26,3.26,0,0,1-2.4,3.3l2.57,3.6Zm-.06-6.9c0-1.68-1.11-2.64-3.21-2.64h-2.79v5.26h2.79C231.28,348.64,232.39,347.67,232.39,346Z" transform="translate(-151.47 -232.45)"/><path class="cls-1" d="M238.12,351.64l.44-.85a5.16,5.16,0,0,0,3.46,1.27c2,0,2.82-.82,2.82-1.86,0-2.88-6.46-1.11-6.46-5,0-1.55,1.2-2.88,3.87-2.88a5.88,5.88,0,0,1,3.25.93l-.37.88a5.45,5.45,0,0,0-2.88-.87c-1.92,0-2.78.86-2.78,1.91,0,2.88,6.47,1.14,6.47,5,0,1.55-1.23,2.87-3.92,2.87A5.7,5.7,0,0,1,238.12,351.64Z" transform="translate(-151.47 -232.45)"/><path class="cls-1" d="M258.78,352v1h-7.43v-10.5h7.2v1h-6.09v3.73h5.43v.95h-5.43V352Z" transform="translate(-151.47 -232.45)"/><path class="cls-1" d="M264.39,342.42h1.11v10.5h-1.11Z" transform="translate(-151.47 -232.45)"/><path class="cls-1" d="M271.92,342.42H273V352h5.88v1h-7Z" transform="translate(-151.47 -232.45)"/><path class="cls-1" d="M283.75,342.42h1.11V352h5.88v1h-7Z" transform="translate(-151.47 -232.45)"/><path class="cls-1" d="M303,352v1h-7.42v-10.5h7.2v1H296.7v3.73h5.43v.95H296.7V352Z" transform="translate(-151.47 -232.45)"/><path class="cls-1" d="M323.77,346c0,2.23-1.62,3.58-4.29,3.58h-2.82v3.32h-1.11v-10.5h3.93C322.15,342.42,323.77,343.77,323.77,346Zm-1.11,0c0-1.68-1.11-2.64-3.21-2.64h-2.79v5.25h2.79C321.55,348.63,322.66,347.67,322.66,346Z" transform="translate(-151.47 -232.45)"/><path class="cls-1" d="M336.34,352.92l-2.4-3.38a7.44,7.44,0,0,1-.84,0h-2.82v3.33h-1.11v-10.5h3.93c2.67,0,4.29,1.35,4.29,3.6a3.26,3.26,0,0,1-2.4,3.3l2.57,3.6Zm-.06-6.9c0-1.68-1.11-2.64-3.21-2.64h-2.79v5.26h2.79C335.17,348.64,336.28,347.67,336.28,346Z" transform="translate(-151.47 -232.45)"/><path class="cls-1" d="M342.09,347.67a5.51,5.51,0,1,1,5.52,5.34A5.28,5.28,0,0,1,342.09,347.67Zm9.91,0a4.41,4.41,0,1,0-4.39,4.35A4.25,4.25,0,0,0,352,347.67Z" transform="translate(-151.47 -232.45)"/><path class="cls-1" d="M367,342.42l-4.65,10.5h-1.1l-4.65-10.5h1.2l4,9.12,4.05-9.12Z" transform="translate(-151.47 -232.45)"/><path class="cls-1" d="M379,352v1h-7.43v-10.5h7.2v1h-6.09v3.73h5.43v.95h-5.43V352Z" transform="translate(-151.47 -232.45)"/><path class="cls-1" d="M393.34,342.42v10.5h-.91l-6.75-8.52v8.52h-1.11v-10.5h.91l6.77,8.52v-8.52Z" transform="translate(-151.47 -232.45)"/><path class="cls-1" d="M398.83,347.67a5.27,5.27,0,0,1,5.51-5.34,5.08,5.08,0,0,1,3.84,1.53l-.71.7a4.14,4.14,0,0,0-3.1-1.24,4.35,4.35,0,1,0,0,8.7,4.12,4.12,0,0,0,3.1-1.26l.71.7a5.11,5.11,0,0,1-3.86,1.55A5.27,5.27,0,0,1,398.83,347.67Z" transform="translate(-151.47 -232.45)"/><path class="cls-1" d="M421,352v1h-7.42v-10.5h7.2v1h-6.09v3.73h5.43v.95h-5.43V352Z" transform="translate(-151.47 -232.45)"/></svg>